<svg xmlns="http://www.w3.org/2000/svg" viewBox="421.322 85.172 298.97 88.821">
  <defs>
    <style>
      .cls-1 {
        fill: #ff4713;
      }

      .cls-2 {
        fill: #fff;
      }
    </style>
  </defs>
  <g id="Logo" transform="translate(421.388 85.237)">
    <path id="Path_22" data-name="Path 22" class="cls-1" d="M990.932,213.21l-13.745-2.267a3.418,3.418,0,0,1-2.806-3.911l2.267-13.745a3.418,3.418,0,0,1,3.911-2.806l13.745,2.267a3.418,3.418,0,0,1,2.806,3.911L994.843,210.4A3.418,3.418,0,0,1,990.932,213.21Z" transform="translate(-698.252 -136.512)"/>
    <path id="Path_23" data-name="Path 23" class="cls-1" d="M73.128,88.715,2.787,77.039A3.418,3.418,0,0,1-.019,73.128L11.658,2.787A3.418,3.418,0,0,1,15.568-.019L85.909,11.658a3.418,3.418,0,0,1,2.806,3.911L77.039,85.909A3.44,3.44,0,0,1,73.128,88.715Z" transform="translate(0 0)"/>
    <g id="Group_6" data-name="Group 6" transform="translate(101.468 0.69)">
      <path id="Path_24" data-name="Path 24" class="cls-1" d="M372.2,41.2c5.583,0,9.182,1.814,10.8,5.47a13.53,13.53,0,0,1,.822,4.563v8.3c0,3.8-2.239,6.688-6.717,8.587a18.223,18.223,0,0,1-5.81.964q-10.075,0-12.64-6.348a9.333,9.333,0,0,1-.453-2.806v-.794a6.888,6.888,0,0,1,5.016-7.028,22.768,22.768,0,0,1,6.518-.822h6.717a.134.134,0,0,0,.142-.142q0-4-5.611-4h-.794a17.671,17.671,0,0,0-7.624,1.445V42.5A28.7,28.7,0,0,1,372.2,41.2Zm-6.745,18.194c0,1.729,1.5,2.777,4.506,3.117h1.389c2.607,0,4.336-.85,5.158-2.551a4.535,4.535,0,0,0,.142-1.105V56.447H370.3c-2.381,0-3.883.482-4.478,1.474A2.919,2.919,0,0,0,365.455,59.394Z" transform="translate(-358.2 -30.261)"/>
      <path id="Path_25" data-name="Path 25" class="cls-1" d="M469.442,42.4h.312c4.846,0,8.587,1.672,11.251,4.988-.028,0-2.04,1.417-6.008,4.251h-.057a6.3,6.3,0,0,0-5.3-2.777c-3.089,0-5.158,1.587-6.235,4.79a10.339,10.339,0,0,0-.312,2.579c0,3.117,1.247,5.356,3.741,6.66a6.792,6.792,0,0,0,2.522.51h.453a5.846,5.846,0,0,0,5.441-3.344h.057l6.093,4.393c-2.579,3.656-6.575,5.5-11.931,5.5q-9.395,0-13.065-7.907a16.8,16.8,0,0,1-1.105-5.895q0-7.907,6.4-11.9A16.089,16.089,0,0,1,469.442,42.4Z" transform="translate(-427.782 -31.121)"/>
      <path id="Path_26" data-name="Path 26" class="cls-1" d="M562.135,12.746h10.741v7.992H562.022v.057h.142v6.49a10.216,10.216,0,0,0,.539,3.174q1.913,4.166,5.866,4.166h.538a8.5,8.5,0,0,0,2.352-.4c2.806-1.275,4.194-3.769,4.194-7.453H583.7a16.4,16.4,0,0,1-1.615,7.453q-4.039,7.227-13.093,7.227a15.69,15.69,0,0,1-9.267-2.636A13.567,13.567,0,0,1,554.2,27.426V2.6h7.992V12.746Z" transform="translate(-498.653 -2.6)"/>
      <path id="Path_27" data-name="Path 27" class="cls-1" d="M672.524,8.175a4.174,4.174,0,0,1,1.3,3.117,4.156,4.156,0,0,1-1.3,3.089,4.41,4.41,0,0,1-3.174,1.3,4.28,4.28,0,0,1-3.146-1.3,4.156,4.156,0,0,1-1.3-3.089,4.173,4.173,0,0,1,1.3-3.117,4.552,4.552,0,0,1,6.32,0Zm-7.255,8.9h8.389V44.508l-8.275.028-.113-19.1Z" transform="translate(-577.98 -5.681)"/>
      <path id="Path_28" data-name="Path 28" class="cls-1" d="M714.648,69.187c-5.583,0-9.211-1.814-10.826-5.47A13.531,13.531,0,0,1,703,59.154v-8.3c0-3.8,2.239-6.688,6.717-8.587a18.223,18.223,0,0,1,5.81-.964q10.075,0,12.64,6.348a9.336,9.336,0,0,1,.453,2.806v.794a6.888,6.888,0,0,1-5.016,7.028,22.768,22.768,0,0,1-6.518.822h-6.717a.134.134,0,0,0-.142.142q0,4,5.611,4h.794c5.583-.085,9.381-.623,11.364-1.587V67.8A73.7,73.7,0,0,1,714.648,69.187Zm6.717-18.194c0-1.729-1.5-2.777-4.506-3.117H715.47c-2.607,0-4.336.85-5.158,2.551a4.535,4.535,0,0,0-.142,1.105V53.94h6.348c2.381,0,3.883-.482,4.506-1.474A2.9,2.9,0,0,0,721.364,50.992Z" transform="translate(-605.283 -30.332)"/>
      <path id="Path_29" data-name="Path 29" class="cls-1" d="M366.717,213.828H358.3V189.172a13.479,13.479,0,0,1,5.526-11.364,15.408,15.408,0,0,1,9.182-2.607q8.077,0,12.243,5.838a15.1,15.1,0,0,1,2.437,8.559,13.811,13.811,0,0,1-6.433,12.243,16.618,16.618,0,0,1-8.134,1.984h-.283a11.4,11.4,0,0,1-6.122-1.672Zm12.952-24.288c0-3.089-1.134-5.356-3.372-6.8a6.681,6.681,0,0,0-3.146-.822h-.539c-2.636,0-4.563,1.389-5.838,4.166a10.218,10.218,0,0,0-.538,3.174v.4a7.086,7.086,0,0,0,3.826,6.773,7.8,7.8,0,0,0,2.834.623c3.2,0,5.356-1.672,6.462-4.988A16.037,16.037,0,0,0,379.669,189.54Z" transform="translate(-358.272 -126.285)"/>
      <path id="Path_30" data-name="Path 30" class="cls-1" d="M482.5,173.7c5.583,0,9.182,1.814,10.8,5.47a13.53,13.53,0,0,1,.822,4.563v8.3c0,3.8-2.239,6.688-6.717,8.587a18.1,18.1,0,0,1-5.81.964q-10.075,0-12.64-6.348a9.333,9.333,0,0,1-.453-2.806v-.794a6.888,6.888,0,0,1,5.016-7.028,22.769,22.769,0,0,1,6.518-.822h6.745a.134.134,0,0,0,.142-.142q0-4-5.611-4h-.765a17.671,17.671,0,0,0-7.624,1.445v-6.15A29.934,29.934,0,0,1,482.5,173.7Zm-6.745,18.194c0,1.729,1.5,2.777,4.506,3.117h1.389c2.607,0,4.336-.85,5.158-2.551a4.534,4.534,0,0,0,.142-1.105v-2.409H480.6c-2.381,0-3.883.482-4.478,1.474A2.848,2.848,0,0,0,475.755,191.894Z" transform="translate(-437.241 -125.21)"/>
      <path id="Path_31" data-name="Path 31" class="cls-1" d="M574.145,176.17a11.3,11.3,0,0,1,6.093-1.672h.283a21.162,21.162,0,0,1,3.968.4v7.652a7.04,7.04,0,0,0-4.166-1.36,8.325,8.325,0,0,0-2.834.6,7.139,7.139,0,0,0-3.8,6.773V201.9H565.7q.042-21.34.057-27.547V174.3h8.389v1.87Z" transform="translate(-506.894 -125.64)"/>
      <path id="Path_32" data-name="Path 32" class="cls-1" d="M640.1,173.7c5.583,0,9.182,1.814,10.8,5.47a13.528,13.528,0,0,1,.822,4.563v8.3c0,3.8-2.239,6.688-6.717,8.587a18.1,18.1,0,0,1-5.81.964q-10.075,0-12.64-6.348a9.332,9.332,0,0,1-.453-2.806v-.794a6.888,6.888,0,0,1,5.016-7.028,22.769,22.769,0,0,1,6.518-.822h6.717a.134.134,0,0,0,.142-.142q0-4-5.611-4h-.794a17.672,17.672,0,0,0-7.624,1.445v-6.15A30.564,30.564,0,0,1,640.1,173.7Zm-6.745,18.194c0,1.729,1.5,2.777,4.506,3.117h1.389c2.607,0,4.336-.85,5.158-2.551a4.531,4.531,0,0,0,.142-1.105v-2.409H638.2c-2.381,0-3.883.482-4.478,1.474A2.848,2.848,0,0,0,633.355,191.894Z" transform="translate(-550.176 -125.21)"/>
      <path id="Path_33" data-name="Path 33" class="cls-1" d="M744.328,176.272v6.065a17.735,17.735,0,0,0-7.538-1.389H736c-3.713,0-5.555,1.3-5.555,3.939a.134.134,0,0,0,.142.142h6.66a23.389,23.389,0,0,1,6.462.822,6.828,6.828,0,0,1,4.959,6.972v.765a9.3,9.3,0,0,1-.453,2.777q-2.551,6.292-12.526,6.292a19.757,19.757,0,0,1-4.534-.6,11.09,11.09,0,0,1-3.032-1.3,8.753,8.753,0,0,1-4.79-6.575v-.057h7.453a5.972,5.972,0,0,0,4.9,1.984h1.389c2.976-.368,4.449-1.389,4.449-3.089a3.078,3.078,0,0,0-.312-1.417c-.6-.992-2.069-1.474-4.449-1.474H723.3v-5.186a14.1,14.1,0,0,1,.822-4.534c1.615-3.6,5.186-5.413,10.741-5.413A27.711,27.711,0,0,1,744.328,176.272Z" transform="translate(-619.83 -126.138)"/>
      <path id="Path_34" data-name="Path 34" class="cls-1" d="M833.57,174.6h.312c6.263,0,10.656,2.692,13.122,8.049a16.911,16.911,0,0,1,1.02,5.781q0,7.567-5.781,11.563a15.9,15.9,0,0,1-8.644,2.267q-9.395,0-13.093-7.935a16.8,16.8,0,0,1-1.105-5.895c0-5.271,2.125-9.267,6.4-11.931A15.835,15.835,0,0,1,833.57,174.6Zm-6.348,13.887c0,3.146,1.247,5.385,3.769,6.688a6.318,6.318,0,0,0,2.522.538h.425a5.936,5.936,0,0,0,4.619-2.069,7.854,7.854,0,0,0,1.7-5.158v-.113c0-3.146-1.219-5.356-3.628-6.632a7,7,0,0,0-2.862-.652c-3.089,0-5.158,1.587-6.235,4.789A11.906,11.906,0,0,0,827.222,188.487Z" transform="translate(-688.695 -125.855)"/>
      <path id="Path_35" data-name="Path 35" class="cls-1" d="M927.2,135.7h8.417v38.628l-8.3.057L927.2,147.49Z" transform="translate(-765.944 -97.979)"/>
    </g>
    <g id="Group_8" data-name="Group 8" transform="translate(4.969 5.451)">
      <g id="Group_7" data-name="Group 7">
        <path id="Path_36" data-name="Path 36" class="cls-2" d="M138.587,138.7c-.227,1.5-.482,2.976-.737,4.478s-.538,2.976-.85,4.449c1.5.227,2.976.482,4.478.737s2.976.538,4.449.85h0c.227-1.5.482-2.976.737-4.478s.538-2.976.85-4.449c-1.5-.227-2.976-.482-4.478-.737-1.474-.283-2.976-.567-4.449-.85" transform="translate(-103.19 -104.89)"/>
        <path id="Path_37" data-name="Path 37" class="cls-2" d="M95.211,32.238l.652-.453-.6-.85-.652.453a268.355,268.355,0,0,1-32.45-3.4,267.523,267.523,0,0,1-31.628-7.935l-.453-.652-.85.6.453.652a268.355,268.355,0,0,1-3.4,32.45,267.522,267.522,0,0,1-7.935,31.628l-.652.453.6.85.652-.453a268.354,268.354,0,0,1,32.45,3.4,267.521,267.521,0,0,1,31.628,7.935l.453.652.85-.6-.453-.652a268.353,268.353,0,0,1,3.4-32.45A267.52,267.52,0,0,1,95.211,32.238ZM79.737,91.3a259.59,259.59,0,0,0-27.575-6.688,262.226,262.226,0,0,0-28.2-3.2,274.38,274.38,0,0,0,6.688-27.575,262.226,262.226,0,0,0,3.2-28.2,259.589,259.589,0,0,0,27.575,6.688,262.226,262.226,0,0,0,28.2,3.2A259.59,259.59,0,0,0,82.939,63.1,255.112,255.112,0,0,0,79.737,91.3Z" transform="translate(-17.7 -19.4)"/>
        <path id="Path_38" data-name="Path 38" class="cls-2" d="M90.876,66.828c-8.36-1.474-16.692-3.6-22.814-5.328h0c-.482,6.348-1.36,14.907-2.834,23.267s-3.6,16.692-5.328,22.814c6.348.482,14.907,1.36,23.267,2.834s16.692,3.6,22.814,5.328h0c.482-6.348,1.36-14.907,2.834-23.267s3.6-16.692,5.328-22.814C107.8,69.18,99.236,68.33,90.876,66.828Zm13.6,24.911c-1.134,6.377-1.9,12.866-2.437,18.393-5.385-1.417-11.733-2.919-18.109-4.053s-12.866-1.9-18.393-2.437h0c1.417-5.385,2.919-11.733,4.053-18.109s1.9-12.866,2.437-18.393c5.385,1.417,11.733,2.919,18.109,4.053s12.866,1.9,18.393,2.437C107.115,78.986,105.613,85.363,104.479,91.739Z" transform="translate(-47.94 -49.569)"/>
        <path id="Path_39" data-name="Path 39" class="cls-2" d="M104.09,100.9h0c-.482,4.336-1.105,9.041-1.927,13.66S100.32,123.8,99.3,128.05h0c4.336.482,9.041,1.105,13.66,1.927s9.239,1.842,13.49,2.862c.482-4.336,1.105-9.041,1.927-13.66s1.842-9.239,2.862-13.49h0c-4.336-.482-9.041-1.105-13.66-1.927S108.341,101.92,104.09,100.9Zm19.923,17.514c-.538,3-.992,6.065-1.389,9.012h0c-2.919-.652-5.923-1.275-8.927-1.814s-6.065-.992-9.012-1.389c.652-2.919,1.275-5.923,1.814-8.927s.992-6.065,1.389-9.012c2.919.652,5.923,1.275,8.927,1.814s6.065.992,9.012,1.389C125.175,112.406,124.551,115.41,124.013,118.414Z" transform="translate(-76.174 -77.803)"/>
      </g>
    </g>
    <g id="Group_9" data-name="Group 9" transform="translate(278.566 59.127)">
      <path id="Path_40" data-name="Path 40" class="cls-2" d="M985.424,243.668a1.27,1.27,0,0,1,.4.907,1.285,1.285,0,0,1-.4.935,1.444,1.444,0,0,1-1.927,0,1.285,1.285,0,0,1-.4-.935,1.222,1.222,0,0,1,.4-.907,1.325,1.325,0,0,1,.964-.368A1.371,1.371,0,0,1,985.424,243.668Z" transform="translate(-983.1 -233.523)"/>
      <path id="Path_41" data-name="Path 41" class="cls-2" d="M994.8,230.042v-4.166a4.777,4.777,0,0,1,.794-2.777,4.581,4.581,0,0,1,4-1.9,5.142,5.142,0,0,1,3,.85,4.428,4.428,0,0,1,1.785,3.713v4.279H1001.8v-4.223a3.489,3.489,0,0,0-.17-1.02,2.026,2.026,0,0,0-1.9-1.36h-.17a2.093,2.093,0,0,0-1.672.822,2.949,2.949,0,0,0-.453,1.5l.028,4.279h-.17C997.18,230.014,996.359,230.042,994.8,230.042Z" transform="translate(-991.484 -217.686)"/>
      <path id="Path_42" data-name="Path 42" class="cls-2" d="M1030.7,208.8h2.692v12.356l-2.664.028-.028-8.615Z" transform="translate(-1017.21 -208.8)"/>
    </g>
  </g>
</svg>
