<svg width="300" height="125" xmlns="http://www.w3.org/2000/svg"><svg x="0" y="0" width="252" height="125" viewBox="0 0 252 125"><svg xmlns="http://www.w3.org/2000/svg" width="252" height="125" viewBox="0 0 252 125"><path d="M74,26.53c-5.36,0-9.56,3.53-9.56,8v51.79c0,4.51,4.2,8.05,9.56,8.05s9.67-3.61,9.67-8.05v-51.75c.03-4.43-4.31-8.04-9.67-8.04Z" fill="#ee722d" stroke-width="0"/><path d="M43.57,26.94c-5.34,0-9.53,3.52-9.53,8v20.06l-16.32-24.21-.1-.14c-.09-.12-.19-.24-.29-.36-1.73-2.17-4.39-3.39-7.17-3.29h-.63c-5.35-.06-9.53,3.46-9.53,8v51.5c0,4.49,4.18,8,9.53,8s9.63-3.59,9.63-8v-20.15l15.52,23c.55,1.22,1.4,2.28,2.47,3.09,1.66,1.36,3.75,2.09,5.9,2.06h.52c5.31,0,9.64-3.59,9.64-8v-51.5c0-4.46-4.33-8.06-9.64-8.06Z" fill="#ee722d" stroke-width="0"/><path d="M182.34,27.31c-1.47,0-2.93.27-4.31.78l-11.28,4.05c-4.88,1.74-7.13,7.5-5.13,13.14,1.58,4.41,5.55,7.49,9.65,7.49h.41v32c0,5.18,4.68,9.24,10.66,9.24s10.76-4.15,10.76-9.24v-48.22c0-5.09-4.83-9.24-10.76-9.24ZM182.34,89.63c-3.53,0-6.29-2.14-6.29-4.87v-37.88l-3.58,1.32c-.38.13-.78.2-1.18.2-2.27,0-4.61-1.93-5.56-4.57-1.18-3.33-.08-6.65,2.49-7.56l11.32-4.07c.9-.34,1.84-.51,2.8-.51,3.52,0,6.39,2.19,6.39,4.88v48.2c-.01,2.67-2.87,4.86-6.39,4.86Z" fill="#fab50d" stroke-width="0"/><path d="M245.13,56.67c2.07-2.98,3.18-6.51,3.2-10.13,0-10.6-9.33-19.23-20.8-19.23s-20.79,8.63-20.79,19.23c.02,3.62,1.13,7.16,3.19,10.14-4.12,3.98-6.48,9.45-6.56,15.18,0,12.31,10.84,22.32,24.16,22.32s24.16-10,24.16-22.32c-.07-5.74-2.43-11.21-6.56-15.19ZM227.53,89.8c-10.91,0-19.79-8-19.79-18,.1-5.16,2.5-10.01,6.54-13.22l1.72-1.36-1.43-1.68c-2.18-2.49-3.4-5.69-3.44-9,0-8.19,7.37-14.86,16.42-14.86s16.45,6.67,16.45,14.86c-.03,3.32-1.26,6.51-3.46,9l-1.43,1.69,1.71,1.4c4.07,3.19,6.47,8.05,6.54,13.22-.03,9.9-8.91,17.95-19.83,17.95Z" fill="#fab50d" stroke-width="0"/><path d="M115.85,65.88c-1.4-1.23-2.25-2.96-2.37-4.82-.05-2.21.97-4.31,2.74-5.63l5-5.25,3.35-3.61-13.74-14.73c-2.19-2.68-4.78-4.09-7.48-4.09-2.68.13-5.22,1.24-7.13,3.12-4.81,4.93-3.09,10.16.1,13.41l15.46,16.63-15.54,16.85c-2.36,2.63-4.89,8.44.55,13.54,1.63,1.58,3.81,2.47,6.08,2.49,4.13,0,7.22-2.94,7.81-3.54l13.85-15-8.68-9.37Z" fill="#ee722d" stroke-width="0"/><path d="M153.77,30.47h-.05c-1.98-1.88-4.58-2.99-7.31-3.1-2.88,0-5.57,1.43-7.79,4.15l-17.36,18.66-5,5.25c-1.77,1.32-2.79,3.42-2.74,5.63.11,1.86.96,3.6,2.37,4.82l22.89,24.73c.6.61,3.79,3.64,8.11,3.64,2.4-.02,4.7-.97,6.42-2.64,5.7-5.33,3-11.42.54-14.2l-15.26-16.51,15.12-16.26c3.37-3.42,5.16-8.94.06-14.17ZM133.48,60.9l17.56,19c2,2.27,3,5.81-.31,8.93-1.04,1.02-2.42,1.62-3.88,1.65-2.04-.13-3.97-1.01-5.4-2.47l-23-24.84-.08-.08c-.67-.55-1.09-1.35-1.15-2.21,0-.6.11-1.53,1.54-2.73l22.66-24.25h0c1.55-1.89,3.22-2.85,5-2.85,1.78.11,3.46.86,4.73,2.11,2.75,2.84,2.7,6-.17,8.92l-17.5,18.82Z" fill="#fab50d" stroke-width="0"/></svg></svg></svg>